<mxfile host="app.diagrams.net" modified="2024-05-27T20:27:44.250Z" agent="Mozilla/5.0 (Windows NT 10.0; Win64; x64) AppleWebKit/537.36 (KHTML, like Gecko) Chrome/124.0.0.0 Safari/537.36 OPR/110.0.0.0" etag="HYTIqsrxA2FrlOEWTecp" version="24.4.9" type="github">
  <diagram name="Страница — 1" id="2zG2QO-hFIdxCl5BQbkB">
    <mxGraphModel dx="687" dy="390" grid="0" gridSize="10" guides="1" tooltips="1" connect="1" arrows="1" fold="1" page="1" pageScale="1" pageWidth="827" pageHeight="1169" math="0" shadow="0">
      <root>
        <mxCell id="0" />
        <mxCell id="1" parent="0" />
        <mxCell id="6MPeJkrhQAW0BNNzGtQ6-1" value="&lt;font style=&quot;font-size: 36px;&quot;&gt;2&lt;/font&gt;" style="ellipse;shape=doubleEllipse;whiteSpace=wrap;html=1;aspect=fixed;" parent="1" vertex="1">
          <mxGeometry x="534" y="380" width="80" height="80" as="geometry" />
        </mxCell>
        <mxCell id="6MPeJkrhQAW0BNNzGtQ6-2" value="&lt;font style=&quot;font-size: 36px;&quot;&gt;0&lt;/font&gt;" style="ellipse;whiteSpace=wrap;html=1;aspect=fixed;" parent="1" vertex="1">
          <mxGeometry x="270" y="230" width="80" height="80" as="geometry" />
        </mxCell>
        <mxCell id="6MPeJkrhQAW0BNNzGtQ6-3" value="&lt;font style=&quot;font-size: 36px;&quot;&gt;1&lt;/font&gt;" style="ellipse;whiteSpace=wrap;html=1;aspect=fixed;" parent="1" vertex="1">
          <mxGeometry x="534" y="120" width="80" height="80" as="geometry" />
        </mxCell>
        <mxCell id="6MPeJkrhQAW0BNNzGtQ6-5" value="" style="endArrow=classic;html=1;rounded=0;exitX=0.623;exitY=0.002;exitDx=0;exitDy=0;exitPerimeter=0;curved=1;" parent="1" source="6MPeJkrhQAW0BNNzGtQ6-2" edge="1">
          <mxGeometry width="50" height="50" relative="1" as="geometry">
            <mxPoint x="360" y="210" as="sourcePoint" />
            <mxPoint x="540" y="140" as="targetPoint" />
            <Array as="points">
              <mxPoint x="410" y="130" />
            </Array>
          </mxGeometry>
        </mxCell>
        <mxCell id="6MPeJkrhQAW0BNNzGtQ6-6" value="" style="endArrow=classic;html=1;rounded=0;entryX=0.915;entryY=0.227;entryDx=0;entryDy=0;entryPerimeter=0;curved=1;exitX=0.015;exitY=0.61;exitDx=0;exitDy=0;exitPerimeter=0;" parent="1" source="6MPeJkrhQAW0BNNzGtQ6-3" target="6MPeJkrhQAW0BNNzGtQ6-2" edge="1">
          <mxGeometry width="50" height="50" relative="1" as="geometry">
            <mxPoint x="530" y="170" as="sourcePoint" />
            <mxPoint x="630" y="290" as="targetPoint" />
            <Array as="points">
              <mxPoint x="450" y="250" />
            </Array>
          </mxGeometry>
        </mxCell>
        <mxCell id="6MPeJkrhQAW0BNNzGtQ6-7" value="" style="triangle;whiteSpace=wrap;html=1;" parent="1" vertex="1">
          <mxGeometry x="240" y="250" width="30" height="50" as="geometry" />
        </mxCell>
        <mxCell id="6MPeJkrhQAW0BNNzGtQ6-8" value="&lt;font style=&quot;font-size: 24px;&quot;&gt;a,d&lt;/font&gt;" style="text;html=1;align=center;verticalAlign=middle;resizable=0;points=[];autosize=1;strokeColor=none;fillColor=none;rotation=-20;" parent="1" vertex="1">
          <mxGeometry x="375" y="120" width="60" height="40" as="geometry" />
        </mxCell>
        <mxCell id="6MPeJkrhQAW0BNNzGtQ6-9" value="&lt;font style=&quot;font-size: 24px;&quot;&gt;c&lt;/font&gt;" style="text;html=1;align=center;verticalAlign=middle;resizable=0;points=[];autosize=1;strokeColor=none;fillColor=none;rotation=-20;" parent="1" vertex="1">
          <mxGeometry x="414" y="190" width="40" height="40" as="geometry" />
        </mxCell>
        <mxCell id="6MPeJkrhQAW0BNNzGtQ6-10" value="" style="endArrow=classic;html=1;rounded=0;exitX=0.5;exitY=1;exitDx=0;exitDy=0;entryX=0.5;entryY=0;entryDx=0;entryDy=0;curved=1;" parent="1" source="6MPeJkrhQAW0BNNzGtQ6-3" target="6MPeJkrhQAW0BNNzGtQ6-1" edge="1">
          <mxGeometry width="50" height="50" relative="1" as="geometry">
            <mxPoint x="490" y="290" as="sourcePoint" />
            <mxPoint x="540" y="240" as="targetPoint" />
            <Array as="points">
              <mxPoint x="610" y="290" />
            </Array>
          </mxGeometry>
        </mxCell>
        <mxCell id="6MPeJkrhQAW0BNNzGtQ6-11" value="&lt;font style=&quot;font-size: 24px;&quot;&gt;a,b,d&lt;/font&gt;" style="text;html=1;align=center;verticalAlign=middle;whiteSpace=wrap;rounded=0;rotation=15;" parent="1" vertex="1">
          <mxGeometry x="590" y="240" width="60" height="30" as="geometry" />
        </mxCell>
        <mxCell id="6MPeJkrhQAW0BNNzGtQ6-12" value="" style="endArrow=classic;html=1;rounded=0;exitX=1;exitY=1;exitDx=0;exitDy=0;entryX=0.948;entryY=0.302;entryDx=0;entryDy=0;curved=1;entryPerimeter=0;" parent="1" source="6MPeJkrhQAW0BNNzGtQ6-1" target="6MPeJkrhQAW0BNNzGtQ6-1" edge="1">
          <mxGeometry width="50" height="50" relative="1" as="geometry">
            <mxPoint x="570" y="340" as="sourcePoint" />
            <mxPoint x="660" y="430" as="targetPoint" />
            <Array as="points">
              <mxPoint x="760" y="440" />
            </Array>
          </mxGeometry>
        </mxCell>
        <mxCell id="6MPeJkrhQAW0BNNzGtQ6-13" value="&lt;font style=&quot;font-size: 24px;&quot;&gt;d&lt;/font&gt;" style="text;html=1;align=center;verticalAlign=middle;resizable=0;points=[];autosize=1;strokeColor=none;fillColor=none;" parent="1" vertex="1">
          <mxGeometry x="680" y="410" width="40" height="40" as="geometry" />
        </mxCell>
        <mxCell id="6MPeJkrhQAW0BNNzGtQ6-15" value="" style="endArrow=classic;html=1;rounded=0;exitX=0.5;exitY=1;exitDx=0;exitDy=0;entryX=0.031;entryY=0.644;entryDx=0;entryDy=0;entryPerimeter=0;curved=1;" parent="1" source="6MPeJkrhQAW0BNNzGtQ6-2" target="6MPeJkrhQAW0BNNzGtQ6-1" edge="1">
          <mxGeometry width="50" height="50" relative="1" as="geometry">
            <mxPoint x="570" y="340" as="sourcePoint" />
            <mxPoint x="620" y="290" as="targetPoint" />
            <Array as="points">
              <mxPoint x="370" y="432" />
            </Array>
          </mxGeometry>
        </mxCell>
        <mxCell id="6MPeJkrhQAW0BNNzGtQ6-16" value="" style="endArrow=classic;html=1;rounded=0;exitX=0.075;exitY=0.25;exitDx=0;exitDy=0;exitPerimeter=0;entryX=1;entryY=1;entryDx=0;entryDy=0;curved=1;" parent="1" source="6MPeJkrhQAW0BNNzGtQ6-1" target="6MPeJkrhQAW0BNNzGtQ6-2" edge="1">
          <mxGeometry width="50" height="50" relative="1" as="geometry">
            <mxPoint x="570" y="340" as="sourcePoint" />
            <mxPoint x="620" y="290" as="targetPoint" />
            <Array as="points">
              <mxPoint x="490" y="280" />
            </Array>
          </mxGeometry>
        </mxCell>
        <mxCell id="6MPeJkrhQAW0BNNzGtQ6-17" value="&lt;font style=&quot;font-size: 24px;&quot;&gt;b&lt;/font&gt;" style="text;html=1;align=center;verticalAlign=middle;resizable=0;points=[];autosize=1;strokeColor=none;fillColor=none;" parent="1" vertex="1">
          <mxGeometry x="360" y="400" width="40" height="40" as="geometry" />
        </mxCell>
        <mxCell id="6MPeJkrhQAW0BNNzGtQ6-18" value="&lt;font style=&quot;font-size: 24px;&quot;&gt;a,b,c&lt;/font&gt;" style="text;html=1;align=center;verticalAlign=middle;resizable=0;points=[];autosize=1;strokeColor=none;fillColor=none;rotation=30;" parent="1" vertex="1">
          <mxGeometry x="435" y="280" width="80" height="40" as="geometry" />
        </mxCell>
        <mxCell id="6MPeJkrhQAW0BNNzGtQ6-19" value="" style="endArrow=classic;html=1;rounded=0;exitX=0.056;exitY=0.252;exitDx=0;exitDy=0;exitPerimeter=0;entryX=0.5;entryY=0;entryDx=0;entryDy=0;entryPerimeter=0;curved=1;" parent="1" source="6MPeJkrhQAW0BNNzGtQ6-2" target="6MPeJkrhQAW0BNNzGtQ6-2" edge="1">
          <mxGeometry width="50" height="50" relative="1" as="geometry">
            <mxPoint x="570" y="330" as="sourcePoint" />
            <mxPoint x="274" y="160" as="targetPoint" />
            <Array as="points">
              <mxPoint x="180" y="110" />
            </Array>
          </mxGeometry>
        </mxCell>
        <mxCell id="6MPeJkrhQAW0BNNzGtQ6-20" value="&lt;font style=&quot;font-size: 24px;&quot;&gt;c&lt;/font&gt;" style="text;html=1;align=center;verticalAlign=middle;resizable=0;points=[];autosize=1;strokeColor=none;fillColor=none;" parent="1" vertex="1">
          <mxGeometry x="200" y="160" width="40" height="40" as="geometry" />
        </mxCell>
        <mxCell id="6FZyRCIPjd43izqGtpry-1" value="&lt;font style=&quot;font-size: 24px;&quot;&gt;0&lt;/font&gt;" style="ellipse;whiteSpace=wrap;html=1;aspect=fixed;" vertex="1" parent="1">
          <mxGeometry x="320" y="600" width="40" height="40" as="geometry" />
        </mxCell>
        <mxCell id="6FZyRCIPjd43izqGtpry-3" value="" style="endArrow=classic;html=1;rounded=0;exitX=0;exitY=1;exitDx=0;exitDy=0;" edge="1" parent="1" source="6FZyRCIPjd43izqGtpry-1" target="6FZyRCIPjd43izqGtpry-4">
          <mxGeometry width="50" height="50" relative="1" as="geometry">
            <mxPoint x="370" y="670" as="sourcePoint" />
            <mxPoint x="270" y="660" as="targetPoint" />
          </mxGeometry>
        </mxCell>
        <mxCell id="6FZyRCIPjd43izqGtpry-4" value="&lt;font style=&quot;font-size: 24px;&quot;&gt;0&lt;/font&gt;" style="ellipse;whiteSpace=wrap;html=1;aspect=fixed;" vertex="1" parent="1">
          <mxGeometry x="160" y="680" width="40" height="40" as="geometry" />
        </mxCell>
        <mxCell id="6FZyRCIPjd43izqGtpry-5" value="&lt;font style=&quot;font-size: 24px;&quot;&gt;1&lt;/font&gt;" style="ellipse;whiteSpace=wrap;html=1;aspect=fixed;" vertex="1" parent="1">
          <mxGeometry x="320" y="680" width="40" height="40" as="geometry" />
        </mxCell>
        <mxCell id="6FZyRCIPjd43izqGtpry-6" value="&lt;font style=&quot;font-size: 24px;&quot;&gt;2&lt;/font&gt;" style="ellipse;whiteSpace=wrap;html=1;aspect=fixed;" vertex="1" parent="1">
          <mxGeometry x="480" y="680" width="40" height="40" as="geometry" />
        </mxCell>
        <mxCell id="6FZyRCIPjd43izqGtpry-7" value="" style="endArrow=classic;html=1;rounded=0;exitX=1;exitY=1;exitDx=0;exitDy=0;" edge="1" parent="1" source="6FZyRCIPjd43izqGtpry-1" target="6FZyRCIPjd43izqGtpry-6">
          <mxGeometry width="50" height="50" relative="1" as="geometry">
            <mxPoint x="370" y="670" as="sourcePoint" />
            <mxPoint x="420" y="620" as="targetPoint" />
          </mxGeometry>
        </mxCell>
        <mxCell id="6FZyRCIPjd43izqGtpry-8" value="" style="endArrow=classic;html=1;rounded=0;exitX=0.5;exitY=1;exitDx=0;exitDy=0;entryX=0.5;entryY=0;entryDx=0;entryDy=0;" edge="1" parent="1" source="6FZyRCIPjd43izqGtpry-1" target="6FZyRCIPjd43izqGtpry-5">
          <mxGeometry width="50" height="50" relative="1" as="geometry">
            <mxPoint x="370" y="670" as="sourcePoint" />
            <mxPoint x="420" y="620" as="targetPoint" />
          </mxGeometry>
        </mxCell>
        <mxCell id="6FZyRCIPjd43izqGtpry-9" value="&lt;font style=&quot;font-size: 18px;&quot;&gt;a,d&lt;/font&gt;" style="text;html=1;align=center;verticalAlign=middle;resizable=0;points=[];autosize=1;strokeColor=none;fillColor=none;rotation=0;" vertex="1" parent="1">
          <mxGeometry x="300" y="640" width="50" height="40" as="geometry" />
        </mxCell>
        <mxCell id="6FZyRCIPjd43izqGtpry-14" value="&lt;font style=&quot;font-size: 18px;&quot;&gt;c&lt;/font&gt;" style="text;html=1;align=center;verticalAlign=middle;resizable=0;points=[];autosize=1;strokeColor=none;fillColor=none;rotation=-30;" vertex="1" parent="1">
          <mxGeometry x="240" y="630" width="30" height="40" as="geometry" />
        </mxCell>
        <mxCell id="6FZyRCIPjd43izqGtpry-15" value="&lt;font style=&quot;font-size: 18px;&quot;&gt;b&lt;/font&gt;" style="text;html=1;align=center;verticalAlign=middle;resizable=0;points=[];autosize=1;strokeColor=none;fillColor=none;rotation=30;" vertex="1" parent="1">
          <mxGeometry x="400" y="630" width="30" height="40" as="geometry" />
        </mxCell>
        <mxCell id="6FZyRCIPjd43izqGtpry-16" value="&lt;font style=&quot;font-size: 24px;&quot;&gt;0&lt;/font&gt;" style="ellipse;whiteSpace=wrap;html=1;aspect=fixed;" vertex="1" parent="1">
          <mxGeometry x="80" y="760" width="40" height="40" as="geometry" />
        </mxCell>
        <mxCell id="6FZyRCIPjd43izqGtpry-17" value="" style="endArrow=classic;html=1;rounded=0;exitX=0.035;exitY=0.711;exitDx=0;exitDy=0;exitPerimeter=0;" edge="1" parent="1" source="6FZyRCIPjd43izqGtpry-4">
          <mxGeometry width="50" height="50" relative="1" as="geometry">
            <mxPoint x="160" y="710" as="sourcePoint" />
            <mxPoint x="108" y="762" as="targetPoint" />
          </mxGeometry>
        </mxCell>
        <mxCell id="6FZyRCIPjd43izqGtpry-18" value="&lt;font style=&quot;font-size: 18px;&quot;&gt;c&lt;/font&gt;" style="text;html=1;align=center;verticalAlign=middle;resizable=0;points=[];autosize=1;strokeColor=none;fillColor=none;rotation=-45;" vertex="1" parent="1">
          <mxGeometry x="110" y="710" width="30" height="40" as="geometry" />
        </mxCell>
        <mxCell id="6FZyRCIPjd43izqGtpry-20" value="&lt;font style=&quot;font-size: 24px;&quot;&gt;2&lt;/font&gt;" style="ellipse;whiteSpace=wrap;html=1;aspect=fixed;" vertex="1" parent="1">
          <mxGeometry x="80" y="840" width="40" height="40" as="geometry" />
        </mxCell>
        <mxCell id="6FZyRCIPjd43izqGtpry-21" value="" style="endArrow=classic;html=1;rounded=0;exitX=0.5;exitY=1;exitDx=0;exitDy=0;entryX=0.5;entryY=0;entryDx=0;entryDy=0;" edge="1" parent="1" source="6FZyRCIPjd43izqGtpry-16" target="6FZyRCIPjd43izqGtpry-20">
          <mxGeometry width="50" height="50" relative="1" as="geometry">
            <mxPoint x="240" y="800" as="sourcePoint" />
            <mxPoint x="290" y="750" as="targetPoint" />
          </mxGeometry>
        </mxCell>
        <mxCell id="6FZyRCIPjd43izqGtpry-22" value="&lt;font style=&quot;font-size: 18px;&quot;&gt;b&lt;/font&gt;" style="text;html=1;align=center;verticalAlign=middle;resizable=0;points=[];autosize=1;strokeColor=none;fillColor=none;" vertex="1" parent="1">
          <mxGeometry x="70" y="800" width="30" height="40" as="geometry" />
        </mxCell>
        <mxCell id="6FZyRCIPjd43izqGtpry-24" value="&lt;font style=&quot;font-size: 24px;&quot;&gt;1&lt;/font&gt;" style="ellipse;whiteSpace=wrap;html=1;aspect=fixed;" vertex="1" parent="1">
          <mxGeometry x="140" y="760" width="40" height="40" as="geometry" />
        </mxCell>
        <mxCell id="6FZyRCIPjd43izqGtpry-25" value="" style="endArrow=classic;html=1;rounded=0;exitX=0.5;exitY=1;exitDx=0;exitDy=0;entryX=0.5;entryY=0;entryDx=0;entryDy=0;" edge="1" parent="1" source="6FZyRCIPjd43izqGtpry-4" target="6FZyRCIPjd43izqGtpry-24">
          <mxGeometry width="50" height="50" relative="1" as="geometry">
            <mxPoint x="320" y="730" as="sourcePoint" />
            <mxPoint x="370" y="680" as="targetPoint" />
          </mxGeometry>
        </mxCell>
        <mxCell id="6FZyRCIPjd43izqGtpry-26" value="&lt;font style=&quot;font-size: 14px;&quot;&gt;a,d&lt;/font&gt;" style="text;html=1;align=center;verticalAlign=middle;resizable=0;points=[];autosize=1;strokeColor=none;fillColor=none;" vertex="1" parent="1">
          <mxGeometry x="135" y="725" width="40" height="30" as="geometry" />
        </mxCell>
        <mxCell id="6FZyRCIPjd43izqGtpry-27" value="&lt;font style=&quot;font-size: 24px;&quot;&gt;2&lt;/font&gt;" style="ellipse;whiteSpace=wrap;html=1;aspect=fixed;" vertex="1" parent="1">
          <mxGeometry x="140" y="840" width="40" height="40" as="geometry" />
        </mxCell>
        <mxCell id="6FZyRCIPjd43izqGtpry-28" value="" style="endArrow=classic;html=1;rounded=0;exitX=0.5;exitY=1;exitDx=0;exitDy=0;entryX=0.5;entryY=0;entryDx=0;entryDy=0;" edge="1" parent="1" source="6FZyRCIPjd43izqGtpry-24" target="6FZyRCIPjd43izqGtpry-27">
          <mxGeometry width="50" height="50" relative="1" as="geometry">
            <mxPoint x="320" y="730" as="sourcePoint" />
            <mxPoint x="370" y="680" as="targetPoint" />
          </mxGeometry>
        </mxCell>
        <mxCell id="6FZyRCIPjd43izqGtpry-29" value="a,b,d" style="text;strokeColor=none;align=center;fillColor=none;html=1;verticalAlign=middle;whiteSpace=wrap;rounded=0;rotation=0;" vertex="1" parent="1">
          <mxGeometry x="115" y="805" width="60" height="30" as="geometry" />
        </mxCell>
        <mxCell id="6FZyRCIPjd43izqGtpry-30" value="&lt;font style=&quot;font-size: 24px;&quot;&gt;2&lt;/font&gt;" style="ellipse;whiteSpace=wrap;html=1;aspect=fixed;" vertex="1" parent="1">
          <mxGeometry x="200" y="760" width="40" height="40" as="geometry" />
        </mxCell>
        <mxCell id="6FZyRCIPjd43izqGtpry-31" value="" style="endArrow=classic;html=1;rounded=0;exitX=1;exitY=1;exitDx=0;exitDy=0;entryX=0.332;entryY=0.053;entryDx=0;entryDy=0;entryPerimeter=0;" edge="1" parent="1" source="6FZyRCIPjd43izqGtpry-4" target="6FZyRCIPjd43izqGtpry-30">
          <mxGeometry width="50" height="50" relative="1" as="geometry">
            <mxPoint x="200" y="730" as="sourcePoint" />
            <mxPoint x="370" y="750" as="targetPoint" />
          </mxGeometry>
        </mxCell>
        <mxCell id="6FZyRCIPjd43izqGtpry-35" value="&lt;font style=&quot;font-size: 24px;&quot;&gt;0&lt;/font&gt;" style="ellipse;whiteSpace=wrap;html=1;aspect=fixed;" vertex="1" parent="1">
          <mxGeometry x="280" y="760" width="40" height="40" as="geometry" />
        </mxCell>
        <mxCell id="6FZyRCIPjd43izqGtpry-36" value="&lt;font style=&quot;font-size: 24px;&quot;&gt;2&lt;/font&gt;" style="ellipse;whiteSpace=wrap;html=1;aspect=fixed;" vertex="1" parent="1">
          <mxGeometry x="360" y="760" width="40" height="40" as="geometry" />
        </mxCell>
        <mxCell id="6FZyRCIPjd43izqGtpry-37" value="&lt;font style=&quot;font-size: 24px;&quot;&gt;2&lt;/font&gt;" style="ellipse;whiteSpace=wrap;html=1;aspect=fixed;" vertex="1" parent="1">
          <mxGeometry x="200" y="840" width="40" height="40" as="geometry" />
        </mxCell>
        <mxCell id="6FZyRCIPjd43izqGtpry-38" value="" style="endArrow=classic;html=1;rounded=0;exitX=0.5;exitY=1;exitDx=0;exitDy=0;entryX=0.5;entryY=0;entryDx=0;entryDy=0;" edge="1" parent="1" source="6FZyRCIPjd43izqGtpry-30" target="6FZyRCIPjd43izqGtpry-37">
          <mxGeometry width="50" height="50" relative="1" as="geometry">
            <mxPoint x="330" y="850" as="sourcePoint" />
            <mxPoint x="380" y="800" as="targetPoint" />
          </mxGeometry>
        </mxCell>
        <mxCell id="6FZyRCIPjd43izqGtpry-40" value="d" style="text;html=1;align=center;verticalAlign=middle;resizable=0;points=[];autosize=1;strokeColor=none;fillColor=none;" vertex="1" parent="1">
          <mxGeometry x="200" y="805" width="30" height="30" as="geometry" />
        </mxCell>
        <mxCell id="6FZyRCIPjd43izqGtpry-42" value="" style="endArrow=classic;html=1;rounded=0;exitX=0;exitY=1;exitDx=0;exitDy=0;entryX=0.5;entryY=0;entryDx=0;entryDy=0;" edge="1" parent="1" source="6FZyRCIPjd43izqGtpry-5" target="6FZyRCIPjd43izqGtpry-35">
          <mxGeometry width="50" height="50" relative="1" as="geometry">
            <mxPoint x="330" y="710" as="sourcePoint" />
            <mxPoint x="380" y="660" as="targetPoint" />
          </mxGeometry>
        </mxCell>
        <mxCell id="6FZyRCIPjd43izqGtpry-43" value="" style="endArrow=classic;html=1;rounded=0;exitX=1;exitY=1;exitDx=0;exitDy=0;entryX=0.5;entryY=0;entryDx=0;entryDy=0;" edge="1" parent="1" source="6FZyRCIPjd43izqGtpry-5" target="6FZyRCIPjd43izqGtpry-36">
          <mxGeometry width="50" height="50" relative="1" as="geometry">
            <mxPoint x="330" y="710" as="sourcePoint" />
            <mxPoint x="380" y="660" as="targetPoint" />
          </mxGeometry>
        </mxCell>
        <mxCell id="6FZyRCIPjd43izqGtpry-44" value="a,b,d" style="text;html=1;align=center;verticalAlign=middle;resizable=0;points=[];autosize=1;strokeColor=none;fillColor=none;rotation=60;" vertex="1" parent="1">
          <mxGeometry x="350" y="715" width="50" height="30" as="geometry" />
        </mxCell>
        <mxCell id="6FZyRCIPjd43izqGtpry-46" value="&lt;font style=&quot;font-size: 18px;&quot;&gt;c&lt;/font&gt;" style="text;html=1;align=center;verticalAlign=middle;resizable=0;points=[];autosize=1;strokeColor=none;fillColor=none;rotation=-60;" vertex="1" parent="1">
          <mxGeometry x="285" y="710" width="30" height="40" as="geometry" />
        </mxCell>
        <mxCell id="6FZyRCIPjd43izqGtpry-47" value="&lt;font style=&quot;font-size: 24px;&quot;&gt;2&lt;/font&gt;" style="ellipse;whiteSpace=wrap;html=1;aspect=fixed;" vertex="1" parent="1">
          <mxGeometry x="280" y="840" width="40" height="40" as="geometry" />
        </mxCell>
        <mxCell id="6FZyRCIPjd43izqGtpry-48" value="&lt;font style=&quot;font-size: 24px;&quot;&gt;2&lt;/font&gt;" style="ellipse;whiteSpace=wrap;html=1;aspect=fixed;" vertex="1" parent="1">
          <mxGeometry x="360" y="840" width="40" height="40" as="geometry" />
        </mxCell>
        <mxCell id="6FZyRCIPjd43izqGtpry-49" value="" style="endArrow=classic;html=1;rounded=0;exitX=0.5;exitY=1;exitDx=0;exitDy=0;entryX=0.5;entryY=0;entryDx=0;entryDy=0;" edge="1" parent="1" source="6FZyRCIPjd43izqGtpry-35" target="6FZyRCIPjd43izqGtpry-47">
          <mxGeometry width="50" height="50" relative="1" as="geometry">
            <mxPoint x="420" y="790" as="sourcePoint" />
            <mxPoint x="470" y="740" as="targetPoint" />
          </mxGeometry>
        </mxCell>
        <mxCell id="6FZyRCIPjd43izqGtpry-50" value="" style="endArrow=classic;html=1;rounded=0;exitX=0.5;exitY=1;exitDx=0;exitDy=0;entryX=0.5;entryY=0;entryDx=0;entryDy=0;" edge="1" parent="1" source="6FZyRCIPjd43izqGtpry-36" target="6FZyRCIPjd43izqGtpry-48">
          <mxGeometry width="50" height="50" relative="1" as="geometry">
            <mxPoint x="420" y="790" as="sourcePoint" />
            <mxPoint x="470" y="740" as="targetPoint" />
          </mxGeometry>
        </mxCell>
        <mxCell id="6FZyRCIPjd43izqGtpry-51" value="&lt;font style=&quot;font-size: 18px;&quot;&gt;b&lt;/font&gt;" style="text;html=1;align=center;verticalAlign=middle;resizable=0;points=[];autosize=1;strokeColor=none;fillColor=none;" vertex="1" parent="1">
          <mxGeometry x="270" y="800" width="30" height="40" as="geometry" />
        </mxCell>
        <mxCell id="6FZyRCIPjd43izqGtpry-52" value="&lt;font style=&quot;font-size: 18px;&quot;&gt;d&lt;/font&gt;" style="text;html=1;align=center;verticalAlign=middle;resizable=0;points=[];autosize=1;strokeColor=none;fillColor=none;" vertex="1" parent="1">
          <mxGeometry x="350" y="800" width="30" height="40" as="geometry" />
        </mxCell>
        <mxCell id="6FZyRCIPjd43izqGtpry-53" value="&lt;font style=&quot;font-size: 24px;&quot;&gt;0&lt;/font&gt;" style="ellipse;whiteSpace=wrap;html=1;aspect=fixed;" vertex="1" parent="1">
          <mxGeometry x="440" y="760" width="40" height="40" as="geometry" />
        </mxCell>
        <mxCell id="6FZyRCIPjd43izqGtpry-54" value="&lt;font style=&quot;font-size: 24px;&quot;&gt;2&lt;/font&gt;" style="ellipse;whiteSpace=wrap;html=1;aspect=fixed;" vertex="1" parent="1">
          <mxGeometry x="520" y="760" width="40" height="40" as="geometry" />
        </mxCell>
        <mxCell id="6FZyRCIPjd43izqGtpry-55" value="" style="endArrow=classic;html=1;rounded=0;exitX=0;exitY=1;exitDx=0;exitDy=0;entryX=0.5;entryY=0;entryDx=0;entryDy=0;" edge="1" parent="1" source="6FZyRCIPjd43izqGtpry-6" target="6FZyRCIPjd43izqGtpry-53">
          <mxGeometry width="50" height="50" relative="1" as="geometry">
            <mxPoint x="380" y="780" as="sourcePoint" />
            <mxPoint x="430" y="730" as="targetPoint" />
          </mxGeometry>
        </mxCell>
        <mxCell id="6FZyRCIPjd43izqGtpry-56" value="" style="endArrow=classic;html=1;rounded=0;exitX=1;exitY=1;exitDx=0;exitDy=0;entryX=0.5;entryY=0;entryDx=0;entryDy=0;" edge="1" parent="1" source="6FZyRCIPjd43izqGtpry-6" target="6FZyRCIPjd43izqGtpry-54">
          <mxGeometry width="50" height="50" relative="1" as="geometry">
            <mxPoint x="380" y="780" as="sourcePoint" />
            <mxPoint x="430" y="730" as="targetPoint" />
          </mxGeometry>
        </mxCell>
        <mxCell id="6FZyRCIPjd43izqGtpry-57" value="&lt;font style=&quot;font-size: 24px;&quot;&gt;2&lt;/font&gt;" style="ellipse;whiteSpace=wrap;html=1;aspect=fixed;" vertex="1" parent="1">
          <mxGeometry x="440" y="840" width="40" height="40" as="geometry" />
        </mxCell>
        <mxCell id="6FZyRCIPjd43izqGtpry-58" value="&lt;font style=&quot;font-size: 24px;&quot;&gt;2&lt;/font&gt;" style="ellipse;whiteSpace=wrap;html=1;aspect=fixed;" vertex="1" parent="1">
          <mxGeometry x="520" y="840" width="40" height="40" as="geometry" />
        </mxCell>
        <mxCell id="6FZyRCIPjd43izqGtpry-59" value="" style="endArrow=classic;html=1;rounded=0;exitX=0.5;exitY=1;exitDx=0;exitDy=0;entryX=0.5;entryY=0;entryDx=0;entryDy=0;" edge="1" parent="1" source="6FZyRCIPjd43izqGtpry-53" target="6FZyRCIPjd43izqGtpry-57">
          <mxGeometry width="50" height="50" relative="1" as="geometry">
            <mxPoint x="380" y="850" as="sourcePoint" />
            <mxPoint x="430" y="800" as="targetPoint" />
          </mxGeometry>
        </mxCell>
        <mxCell id="6FZyRCIPjd43izqGtpry-60" value="" style="endArrow=classic;html=1;rounded=0;exitX=0.5;exitY=1;exitDx=0;exitDy=0;entryX=0.5;entryY=0;entryDx=0;entryDy=0;" edge="1" parent="1" source="6FZyRCIPjd43izqGtpry-54" target="6FZyRCIPjd43izqGtpry-58">
          <mxGeometry width="50" height="50" relative="1" as="geometry">
            <mxPoint x="380" y="850" as="sourcePoint" />
            <mxPoint x="430" y="800" as="targetPoint" />
          </mxGeometry>
        </mxCell>
        <mxCell id="6FZyRCIPjd43izqGtpry-61" value="&lt;font style=&quot;font-size: 18px;&quot;&gt;b&lt;/font&gt;" style="text;html=1;align=center;verticalAlign=middle;resizable=0;points=[];autosize=1;strokeColor=none;fillColor=none;" vertex="1" parent="1">
          <mxGeometry x="430" y="805" width="30" height="40" as="geometry" />
        </mxCell>
        <mxCell id="6FZyRCIPjd43izqGtpry-62" value="&lt;font style=&quot;font-size: 18px;&quot;&gt;d&lt;/font&gt;" style="text;html=1;align=center;verticalAlign=middle;resizable=0;points=[];autosize=1;strokeColor=none;fillColor=none;" vertex="1" parent="1">
          <mxGeometry x="504" y="800" width="30" height="40" as="geometry" />
        </mxCell>
        <mxCell id="6FZyRCIPjd43izqGtpry-63" value="&lt;font style=&quot;font-size: 18px;&quot;&gt;d&lt;/font&gt;" style="text;html=1;align=center;verticalAlign=middle;resizable=0;points=[];autosize=1;strokeColor=none;fillColor=none;rotation=60;" vertex="1" parent="1">
          <mxGeometry x="520" y="710" width="30" height="40" as="geometry" />
        </mxCell>
        <mxCell id="6FZyRCIPjd43izqGtpry-65" value="a,b,c" style="text;html=1;align=center;verticalAlign=middle;resizable=0;points=[];autosize=1;strokeColor=none;fillColor=none;rotation=-60;" vertex="1" parent="1">
          <mxGeometry x="435" y="715" width="50" height="30" as="geometry" />
        </mxCell>
        <mxCell id="6FZyRCIPjd43izqGtpry-66" value="&lt;font style=&quot;font-size: 18px;&quot;&gt;b&lt;/font&gt;" style="text;html=1;align=center;verticalAlign=middle;resizable=0;points=[];autosize=1;strokeColor=none;fillColor=none;" vertex="1" parent="1">
          <mxGeometry x="200" y="710" width="30" height="40" as="geometry" />
        </mxCell>
      </root>
    </mxGraphModel>
  </diagram>
</mxfile>
